<svg width="63" height="28" viewBox="0 0 63 28" fill="none" xmlns="http://www.w3.org/2000/svg">
<g clip-path="url(#clip0_1_321)">
<g clip-path="url(#clip1_1_321)">
<path d="M55.4335 13.3111L55.4057 13.339C55.6009 12.8093 55.9911 12.6142 56.3256 12.6142C56.7995 12.6142 57.2176 12.9766 57.2176 13.5062C57.2176 13.6178 57.2176 13.7571 57.1619 13.9244C56.1862 16.4333 54.1234 17.7155 52.1163 17.9107C51.1964 19.4717 49.6911 20.6147 47.5446 20.6147C44.4782 20.6147 43.1123 18.1895 43.1123 15.5412C43.1123 12.2797 45.1752 8.65576 48.6318 8.65576C49.3844 8.65576 50.0256 8.82309 50.5552 9.04606C52.1163 9.63144 53.1199 11.6664 53.1199 13.8407C53.1199 14.5376 53.0641 15.2345 52.8968 15.9036C53.9283 15.5412 54.9039 14.7049 55.4335 13.3111ZM49.6075 10.9416V10.9138C48.9942 10.9138 48.6318 11.7221 48.6318 12.6978C48.6318 14.1195 49.4123 15.4297 50.6389 15.9036C50.834 15.2903 50.9176 14.5934 50.9176 13.785C50.9176 12.224 50.4437 10.9416 49.6075 10.9416ZM47.5725 18.5797C48.353 18.5797 49.1335 18.2452 49.7468 17.5483C47.9349 16.7399 46.792 14.8443 46.792 13.0323C46.792 12.419 46.9035 11.7779 47.0707 11.2204C45.9557 12.1403 45.3145 13.9523 45.3145 15.5412C45.3145 17.604 46.2902 18.5797 47.5725 18.5797Z" fill="white"/>
<path d="M43.5427 13.3112L43.5148 13.3391C43.71 12.8095 44.0445 12.5865 44.379 12.5865C44.8529 12.5865 45.3267 13.0046 45.3267 13.5343C45.3267 13.6736 45.2989 13.7852 45.2431 13.9245C44.156 16.5728 42.5391 19.667 39.9467 21.479L39.891 22.0365C39.5843 25.3817 37.8839 27.5002 35.7374 27.5002C34.1205 27.5002 33.1728 26.3852 33.1728 25.075C33.1728 22.7055 35.598 21.8414 37.856 20.3918C37.9117 19.8064 37.9396 19.1374 37.9674 18.3847C36.8524 19.6112 35.6538 20.1131 34.5945 20.1131C32.4759 20.1131 30.7476 18.3847 30.7476 15.7365C30.7476 11.6666 33.4236 8.99048 36.4064 8.99048H36.4343C38.4693 8.99048 40.6436 10.0776 40.6436 12.029C40.6436 12.6701 40.3648 16.1546 40.1418 18.8586C41.6471 17.4369 42.9015 15.1232 43.5427 13.3112ZM34.9011 18.106C35.9325 18.106 37.3263 17.4648 38.1905 14.3148C38.3298 13.6179 38.4135 13.0046 38.3856 12.2798C38.2184 11.5272 37.5772 11.0812 36.6573 11.0812C34.7617 11.0812 32.9498 12.8931 32.9498 15.6529C32.9498 17.3255 33.7303 18.106 34.9011 18.106ZM35.9604 25.4653H35.9883C36.5736 25.4653 37.2148 25.075 37.6329 22.5662C36.4064 23.2909 35.2635 24.0157 35.2635 24.8798C35.2635 25.2422 35.5422 25.4653 35.9604 25.4653Z" fill="white"/>
<path d="M31.2368 13.3111L31.2089 13.339C31.404 12.8093 31.7943 12.6142 32.1288 12.6142C32.6027 12.6142 33.0209 12.9766 33.0209 13.5062C33.0209 13.6178 33.0209 13.7571 32.9651 13.9244C31.9895 16.4333 29.9266 17.7155 27.9195 17.9107C26.9996 19.4717 25.4943 20.6147 23.3478 20.6147C20.2814 20.6147 18.9155 18.1895 18.9155 15.5412C18.9155 12.2797 20.9783 8.65576 24.435 8.65576C25.1876 8.65576 25.8288 8.82309 26.3585 9.04606C27.9195 9.63144 28.9231 11.6664 28.9231 13.8407C28.9231 14.5376 28.8673 15.2345 28.7 15.9036C29.7315 15.5412 30.7071 14.7049 31.2368 13.3111ZM25.4107 10.9416V10.9138C24.7974 10.9138 24.435 11.7221 24.435 12.6978C24.435 14.1195 25.2155 15.4297 26.4421 15.9036C26.6372 15.2903 26.7209 14.5934 26.7209 13.785C26.7209 12.224 26.2469 10.9416 25.4107 10.9416ZM23.3757 18.5797C24.1562 18.5797 24.9368 18.2452 25.55 17.5483C23.7381 16.7399 22.5952 14.8443 22.5952 13.0323C22.5952 12.419 22.7067 11.7779 22.874 11.2204C21.7589 12.1403 21.1178 13.9523 21.1178 15.5412C21.1178 17.604 22.0934 18.5797 23.3757 18.5797Z" fill="white"/>
<path d="M20.3322 12.4311C19.9419 12.4311 19.6074 12.6263 19.3843 13.1559C18.6596 14.9958 17.1542 18.1179 15.621 18.1179C14.6556 18.1179 13.9085 17.8996 13.1536 17.679C12.3826 17.4537 11.6035 17.2259 10.5753 17.2259C10.2129 17.2259 9.71115 17.2817 9.23725 17.3653C10.6649 15.4185 11.1983 13.0607 11.7151 8.60396C10.742 8.54201 9.95045 8.36224 9.37349 8.18066C8.75725 13.833 8.05746 15.9882 5.50178 18.1179C5.16726 18.3967 5 18.787 5 19.1773C5 19.7906 5.52966 20.3202 6.1987 20.3202C6.42172 20.3202 6.6726 20.2366 6.92349 20.1251C8.3452 19.4839 9.20938 19.3167 10.2687 19.3167C10.9423 19.3167 11.7484 19.5093 12.6114 19.7155C13.6054 19.9531 14.675 20.2087 15.7047 20.2087C17.9626 20.2087 19.4401 18.0065 21.0848 13.7413C21.1685 13.602 21.1963 13.4347 21.1963 13.2953C21.1963 12.7656 20.7782 12.4311 20.3322 12.4311Z" fill="white"/>
<path fill-rule="evenodd" clip-rule="evenodd" d="M9.51512 7.02715C10.0199 7.20338 10.808 7.40855 11.8299 7.46925L11.9971 7.46916C15.1472 7.46916 17.2101 5.5178 17.2101 3.17616C17.2101 1.67082 16.0393 0.5 14.3945 0.5C12.1923 0.5 10.6591 2.00534 9.87851 4.98814C8.90282 4.45849 8.23379 3.51068 7.89926 2.31199C7.732 1.72657 7.36961 1.36417 6.86782 1.36417C6.25454 1.36417 5.86426 1.83808 5.86426 2.47924C5.86426 4.37486 7.34173 6.18684 9.51611 7.02314L9.51512 7.02715ZM12.1644 5.43417C12.5825 3.51068 13.2516 2.59075 14.1436 2.59075C14.6176 2.59075 14.9242 2.86952 14.9242 3.3713C14.9242 4.29123 13.9485 5.37841 12.1644 5.43417Z" fill="white"/>
</g>
</g>
<defs>
<clipPath id="clip0_1_321">
<rect width="63" height="27" fill="white" transform="translate(0 0.5)"/>
</clipPath>
<clipPath id="clip1_1_321">
<rect width="52.5" height="27" fill="white" transform="translate(5 0.5)"/>
</clipPath>
</defs>
</svg>
